<svg width="201" height="73" viewBox="0 0 201 73" fill="none" xmlns="http://www.w3.org/2000/svg">
<rect x="5" y="21" width="45" height="45" rx="5" fill="#3E959B"/>
<mask id="path-2-outside-1_1_2" maskUnits="userSpaceOnUse" x="18" y="28" width="22" height="29" fill="black">
<rect fill="white" x="18" y="28" width="22" height="29"/>
<path d="M19.1705 56V29.8182H28.017C30.0625 29.8182 31.7415 30.1676 33.054 30.8665C34.3665 31.5568 35.3381 32.5071 35.9688 33.7173C36.5994 34.9276 36.9148 36.304 36.9148 37.8466C36.9148 39.3892 36.5994 40.7571 35.9688 41.9503C35.3381 43.1435 34.3707 44.081 33.0668 44.7628C31.7628 45.4361 30.0966 45.7727 28.0682 45.7727H20.9091V42.9091H27.9659C29.3636 42.9091 30.4886 42.7045 31.3409 42.2955C32.2017 41.8864 32.8239 41.3068 33.2074 40.5568C33.5994 39.7983 33.7955 38.8949 33.7955 37.8466C33.7955 36.7983 33.5994 35.8821 33.2074 35.098C32.8153 34.3139 32.1889 33.7088 31.3281 33.2827C30.4673 32.848 29.3295 32.6307 27.9148 32.6307H22.3409V56H19.1705ZM31.4943 44.2386L37.9375 56H34.2557L27.9148 44.2386H31.4943Z"/>
</mask>
<path d="M19.1705 56V29.8182H28.017C30.0625 29.8182 31.7415 30.1676 33.054 30.8665C34.3665 31.5568 35.3381 32.5071 35.9688 33.7173C36.5994 34.9276 36.9148 36.304 36.9148 37.8466C36.9148 39.3892 36.5994 40.7571 35.9688 41.9503C35.3381 43.1435 34.3707 44.081 33.0668 44.7628C31.7628 45.4361 30.0966 45.7727 28.0682 45.7727H20.9091V42.9091H27.9659C29.3636 42.9091 30.4886 42.7045 31.3409 42.2955C32.2017 41.8864 32.8239 41.3068 33.2074 40.5568C33.5994 39.7983 33.7955 38.8949 33.7955 37.8466C33.7955 36.7983 33.5994 35.8821 33.2074 35.098C32.8153 34.3139 32.1889 33.7088 31.3281 33.2827C30.4673 32.848 29.3295 32.6307 27.9148 32.6307H22.3409V56H19.1705ZM31.4943 44.2386L37.9375 56H34.2557L27.9148 44.2386H31.4943Z" fill="#F5F5F5"/>
<path d="M19.1705 56H18.1705V57H19.1705V56ZM19.1705 29.8182V28.8182H18.1705V29.8182H19.1705ZM33.054 30.8665L32.584 31.7492L32.5885 31.7515L33.054 30.8665ZM35.9688 33.7173L35.0819 34.1795L35.0819 34.1795L35.9688 33.7173ZM35.9688 41.9503L35.0847 41.483L35.0847 41.483L35.9688 41.9503ZM33.0668 44.7628L33.5256 45.6513L33.5301 45.649L33.0668 44.7628ZM20.9091 45.7727H19.9091V46.7727H20.9091V45.7727ZM20.9091 42.9091V41.9091H19.9091V42.9091H20.9091ZM31.3409 42.2955L30.9117 41.3923L30.9082 41.3939L31.3409 42.2955ZM33.2074 40.5568L32.319 40.0977L32.317 40.1015L33.2074 40.5568ZM31.3281 33.2827L30.8774 34.1754L30.8845 34.1789L31.3281 33.2827ZM22.3409 32.6307V31.6307H21.3409V32.6307H22.3409ZM22.3409 56V57H23.3409V56H22.3409ZM31.4943 44.2386L32.3713 43.7582L32.0867 43.2386H31.4943V44.2386ZM37.9375 56V57H39.6256L38.8145 55.5195L37.9375 56ZM34.2557 56L33.3755 56.4746L33.6587 57H34.2557V56ZM27.9148 44.2386V43.2386H26.2396L27.0345 44.7132L27.9148 44.2386ZM20.1705 56V29.8182H18.1705V56H20.1705ZM19.1705 30.8182H28.017V28.8182H19.1705V30.8182ZM28.017 30.8182C29.9571 30.8182 31.4602 31.1508 32.584 31.7491L33.524 29.9838C32.0227 29.1844 30.1679 28.8182 28.017 28.8182V30.8182ZM32.5885 31.7515C33.7371 32.3557 34.5536 33.1656 35.0819 34.1795L36.8556 33.2552C36.1226 31.8486 34.9958 30.7579 33.5195 29.9814L32.5885 31.7515ZM35.0819 34.1795C35.629 35.2293 35.9148 36.4437 35.9148 37.8466H37.9148C37.9148 36.1643 37.5698 34.6258 36.8556 33.2552L35.0819 34.1795ZM35.9148 37.8466C35.9148 39.2498 35.629 40.4532 35.0847 41.483L36.8528 42.4176C37.5699 41.061 37.9148 39.5286 37.9148 37.8466H35.9148ZM35.0847 41.483C34.5572 42.4809 33.7449 43.2797 32.6034 43.8766L33.5301 45.649C34.9965 44.8822 36.119 43.806 36.8528 42.4176L35.0847 41.483ZM32.608 43.8742C31.4895 44.4517 29.9947 44.7727 28.0682 44.7727V46.7727C30.1985 46.7727 32.0361 46.4204 33.5256 45.6513L32.608 43.8742ZM28.0682 44.7727H20.9091V46.7727H28.0682V44.7727ZM21.9091 45.7727V42.9091H19.9091V45.7727H21.9091ZM20.9091 43.9091H27.9659V41.9091H20.9091V43.9091ZM27.9659 43.9091C29.4476 43.9091 30.7374 43.6944 31.7736 43.197L30.9082 41.3939C30.2398 41.7147 29.2796 41.9091 27.9659 41.9091V43.9091ZM31.7701 43.1986C32.8023 42.7081 33.601 41.9835 34.0977 41.0121L32.317 40.1015C32.0467 40.6301 31.6011 41.0646 30.9117 41.3923L31.7701 43.1986ZM34.0957 41.016C34.576 40.0868 34.7955 39.0188 34.7955 37.8466H32.7955C32.7955 38.771 32.6229 39.5098 32.319 40.0977L34.0957 41.016ZM34.7955 37.8466C34.7955 36.6732 34.5756 35.5984 34.1018 34.6508L32.313 35.5452C32.6233 36.1658 32.7955 36.9234 32.7955 37.8466H34.7955ZM34.1018 34.6508C33.603 33.6531 32.808 32.8994 31.7718 32.3865L30.8845 34.1789C31.5699 34.5182 32.0277 34.9747 32.313 35.5452L34.1018 34.6508ZM31.7789 32.39C30.7284 31.8596 29.4185 31.6307 27.9148 31.6307V33.6307C29.2405 33.6307 30.2063 33.8364 30.8774 34.1753L31.7789 32.39ZM27.9148 31.6307H22.3409V33.6307H27.9148V31.6307ZM21.3409 32.6307V56H23.3409V32.6307H21.3409ZM22.3409 55H19.1705V57H22.3409V55ZM30.6173 44.7191L37.0605 56.4805L38.8145 55.5195L32.3713 43.7582L30.6173 44.7191ZM37.9375 55H34.2557V57H37.9375V55ZM35.1359 55.5254L28.795 43.7641L27.0345 44.7132L33.3755 56.4746L35.1359 55.5254ZM27.9148 45.2386H31.4943V43.2386H27.9148V45.2386Z" fill="#F5F5F5" mask="url(#path-2-outside-1_1_2)"/>
<mask id="path-4-outside-2_1_2" maskUnits="userSpaceOnUse" x="65" y="30" width="120" height="26" fill="black">
<rect fill="white" x="65" y="30" width="120" height="26"/>
<path d="M66.1136 50V32.5455H72.0114C73.375 32.5455 74.4943 32.7784 75.3693 33.2443C76.2443 33.7045 76.892 34.3381 77.3125 35.1449C77.733 35.9517 77.9432 36.8693 77.9432 37.8977C77.9432 38.9261 77.733 39.8381 77.3125 40.6335C76.892 41.429 76.2472 42.054 75.3778 42.5085C74.5085 42.9574 73.3977 43.1818 72.0455 43.1818H67.2727V41.2727H71.9773C72.9091 41.2727 73.6591 41.1364 74.2273 40.8636C74.8011 40.5909 75.2159 40.2045 75.4716 39.7045C75.733 39.1989 75.8636 38.5966 75.8636 37.8977C75.8636 37.1989 75.733 36.5881 75.4716 36.0653C75.2102 35.5426 74.7926 35.1392 74.2188 34.8551C73.6449 34.5653 72.8864 34.4205 71.9432 34.4205H68.2273V50H66.1136ZM74.3295 42.1591L78.625 50H76.1705L71.9432 42.1591H74.3295ZM93.4311 50.2727C92.1697 50.2727 91.0817 49.9943 90.1669 49.4375C89.2578 48.875 88.5561 48.0909 88.0618 47.0852C87.5732 46.0739 87.3288 44.8977 87.3288 43.5568C87.3288 42.2159 87.5732 41.0341 88.0618 40.0114C88.5561 38.983 89.2436 38.1818 90.1243 37.608C91.0107 37.0284 92.0447 36.7386 93.2266 36.7386C93.9084 36.7386 94.5817 36.8523 95.2464 37.0795C95.9112 37.3068 96.5163 37.6761 97.0618 38.1875C97.6072 38.6932 98.0419 39.3636 98.3658 40.1989C98.6896 41.0341 98.8516 42.0625 98.8516 43.2841V44.1364H88.7607V42.3977H96.8061C96.8061 41.6591 96.6584 41 96.3629 40.4205C96.0732 39.8409 95.6584 39.3835 95.1186 39.0483C94.5845 38.7131 93.9538 38.5455 93.2266 38.5455C92.4254 38.5455 91.7322 38.7443 91.147 39.142C90.5675 39.5341 90.1214 40.0455 89.8089 40.6761C89.4964 41.3068 89.3402 41.983 89.3402 42.7045V43.8636C89.3402 44.8523 89.5107 45.6903 89.8516 46.3778C90.1982 47.0597 90.6783 47.5795 91.2919 47.9375C91.9055 48.2898 92.6186 48.4659 93.4311 48.4659C93.9595 48.4659 94.4368 48.392 94.8629 48.2443C95.2947 48.0909 95.6669 47.8636 95.9794 47.5625C96.2919 47.2557 96.5334 46.875 96.7038 46.4205L98.647 46.9659C98.4425 47.625 98.0987 48.2045 97.6158 48.7045C97.1328 49.1989 96.5362 49.5852 95.826 49.8636C95.1158 50.1364 94.3175 50.2727 93.4311 50.2727ZM110.673 42.125V50H108.661V36.9091H110.604V38.9545H110.775C111.082 38.2898 111.548 37.7557 112.173 37.3523C112.798 36.9432 113.604 36.7386 114.593 36.7386C115.479 36.7386 116.255 36.9205 116.92 37.2841C117.585 37.642 118.102 38.1875 118.471 38.9205C118.84 39.6477 119.025 40.5682 119.025 41.6818V50H117.013V41.8182C117.013 40.7898 116.746 39.9886 116.212 39.4148C115.678 38.8352 114.945 38.5455 114.013 38.5455C113.371 38.5455 112.798 38.6847 112.292 38.9631C111.792 39.2415 111.397 39.6477 111.107 40.1818C110.817 40.7159 110.673 41.3636 110.673 42.125ZM135.143 36.9091V38.6136H128.359V36.9091H135.143ZM130.337 33.7727H132.348V46.25C132.348 46.8182 132.43 47.2443 132.595 47.5284C132.766 47.8068 132.982 47.9943 133.243 48.0909C133.51 48.1818 133.791 48.2273 134.087 48.2273C134.308 48.2273 134.49 48.2159 134.632 48.1932C134.774 48.1648 134.888 48.142 134.973 48.125L135.382 49.9318C135.246 49.983 135.055 50.0341 134.811 50.0852C134.567 50.142 134.257 50.1705 133.882 50.1705C133.314 50.1705 132.757 50.0483 132.212 49.804C131.672 49.5597 131.223 49.1875 130.865 48.6875C130.513 48.1875 130.337 47.5568 130.337 46.7955V33.7727ZM144.919 50V36.9091H146.93V50H144.919ZM145.942 34.7273C145.55 34.7273 145.212 34.5938 144.928 34.3267C144.649 34.0597 144.51 33.7386 144.51 33.3636C144.51 32.9886 144.649 32.6676 144.928 32.4006C145.212 32.1335 145.55 32 145.942 32C146.334 32 146.669 32.1335 146.947 32.4006C147.232 32.6676 147.374 32.9886 147.374 33.3636C147.374 33.7386 147.232 34.0597 146.947 34.3267C146.669 34.5938 146.334 34.7273 145.942 34.7273ZM163.194 36.9091V38.6136H156.137V36.9091H163.194ZM158.251 50V35.1023C158.251 34.3523 158.427 33.7273 158.779 33.2273C159.131 32.7273 159.589 32.3523 160.151 32.1023C160.714 31.8523 161.308 31.7273 161.933 31.7273C162.427 31.7273 162.83 31.767 163.143 31.8466C163.455 31.9261 163.688 32 163.842 32.0682L163.262 33.8068C163.16 33.7727 163.018 33.7301 162.836 33.679C162.66 33.6278 162.427 33.6023 162.137 33.6023C161.472 33.6023 160.992 33.7699 160.697 34.1051C160.407 34.4403 160.262 34.9318 160.262 35.5795V50H158.251ZM174.058 54.9091C173.717 54.9091 173.413 54.8807 173.146 54.8239C172.879 54.7727 172.695 54.7216 172.592 54.6705L173.104 52.8977C173.592 53.0227 174.024 53.0682 174.399 53.0341C174.774 53 175.107 52.8324 175.396 52.5312C175.692 52.2358 175.962 51.7557 176.206 51.0909L176.581 50.0682L171.74 36.9091H173.922L177.536 47.3409H177.672L181.286 36.9091H183.467L177.911 51.9091C177.661 52.5852 177.351 53.1449 176.982 53.5881C176.612 54.0369 176.183 54.3693 175.695 54.5852C175.212 54.8011 174.666 54.9091 174.058 54.9091Z"/>
</mask>
<path d="M66.1136 50V32.5455H72.0114C73.375 32.5455 74.4943 32.7784 75.3693 33.2443C76.2443 33.7045 76.892 34.3381 77.3125 35.1449C77.733 35.9517 77.9432 36.8693 77.9432 37.8977C77.9432 38.9261 77.733 39.8381 77.3125 40.6335C76.892 41.429 76.2472 42.054 75.3778 42.5085C74.5085 42.9574 73.3977 43.1818 72.0455 43.1818H67.2727V41.2727H71.9773C72.9091 41.2727 73.6591 41.1364 74.2273 40.8636C74.8011 40.5909 75.2159 40.2045 75.4716 39.7045C75.733 39.1989 75.8636 38.5966 75.8636 37.8977C75.8636 37.1989 75.733 36.5881 75.4716 36.0653C75.2102 35.5426 74.7926 35.1392 74.2188 34.8551C73.6449 34.5653 72.8864 34.4205 71.9432 34.4205H68.2273V50H66.1136ZM74.3295 42.1591L78.625 50H76.1705L71.9432 42.1591H74.3295ZM93.4311 50.2727C92.1697 50.2727 91.0817 49.9943 90.1669 49.4375C89.2578 48.875 88.5561 48.0909 88.0618 47.0852C87.5732 46.0739 87.3288 44.8977 87.3288 43.5568C87.3288 42.2159 87.5732 41.0341 88.0618 40.0114C88.5561 38.983 89.2436 38.1818 90.1243 37.608C91.0107 37.0284 92.0447 36.7386 93.2266 36.7386C93.9084 36.7386 94.5817 36.8523 95.2464 37.0795C95.9112 37.3068 96.5163 37.6761 97.0618 38.1875C97.6072 38.6932 98.0419 39.3636 98.3658 40.1989C98.6896 41.0341 98.8516 42.0625 98.8516 43.2841V44.1364H88.7607V42.3977H96.8061C96.8061 41.6591 96.6584 41 96.3629 40.4205C96.0732 39.8409 95.6584 39.3835 95.1186 39.0483C94.5845 38.7131 93.9538 38.5455 93.2266 38.5455C92.4254 38.5455 91.7322 38.7443 91.147 39.142C90.5675 39.5341 90.1214 40.0455 89.8089 40.6761C89.4964 41.3068 89.3402 41.983 89.3402 42.7045V43.8636C89.3402 44.8523 89.5107 45.6903 89.8516 46.3778C90.1982 47.0597 90.6783 47.5795 91.2919 47.9375C91.9055 48.2898 92.6186 48.4659 93.4311 48.4659C93.9595 48.4659 94.4368 48.392 94.8629 48.2443C95.2947 48.0909 95.6669 47.8636 95.9794 47.5625C96.2919 47.2557 96.5334 46.875 96.7038 46.4205L98.647 46.9659C98.4425 47.625 98.0987 48.2045 97.6158 48.7045C97.1328 49.1989 96.5362 49.5852 95.826 49.8636C95.1158 50.1364 94.3175 50.2727 93.4311 50.2727ZM110.673 42.125V50H108.661V36.9091H110.604V38.9545H110.775C111.082 38.2898 111.548 37.7557 112.173 37.3523C112.798 36.9432 113.604 36.7386 114.593 36.7386C115.479 36.7386 116.255 36.9205 116.92 37.2841C117.585 37.642 118.102 38.1875 118.471 38.9205C118.84 39.6477 119.025 40.5682 119.025 41.6818V50H117.013V41.8182C117.013 40.7898 116.746 39.9886 116.212 39.4148C115.678 38.8352 114.945 38.5455 114.013 38.5455C113.371 38.5455 112.798 38.6847 112.292 38.9631C111.792 39.2415 111.397 39.6477 111.107 40.1818C110.817 40.7159 110.673 41.3636 110.673 42.125ZM135.143 36.9091V38.6136H128.359V36.9091H135.143ZM130.337 33.7727H132.348V46.25C132.348 46.8182 132.43 47.2443 132.595 47.5284C132.766 47.8068 132.982 47.9943 133.243 48.0909C133.51 48.1818 133.791 48.2273 134.087 48.2273C134.308 48.2273 134.49 48.2159 134.632 48.1932C134.774 48.1648 134.888 48.142 134.973 48.125L135.382 49.9318C135.246 49.983 135.055 50.0341 134.811 50.0852C134.567 50.142 134.257 50.1705 133.882 50.1705C133.314 50.1705 132.757 50.0483 132.212 49.804C131.672 49.5597 131.223 49.1875 130.865 48.6875C130.513 48.1875 130.337 47.5568 130.337 46.7955V33.7727ZM144.919 50V36.9091H146.93V50H144.919ZM145.942 34.7273C145.55 34.7273 145.212 34.5938 144.928 34.3267C144.649 34.0597 144.51 33.7386 144.51 33.3636C144.51 32.9886 144.649 32.6676 144.928 32.4006C145.212 32.1335 145.55 32 145.942 32C146.334 32 146.669 32.1335 146.947 32.4006C147.232 32.6676 147.374 32.9886 147.374 33.3636C147.374 33.7386 147.232 34.0597 146.947 34.3267C146.669 34.5938 146.334 34.7273 145.942 34.7273ZM163.194 36.9091V38.6136H156.137V36.9091H163.194ZM158.251 50V35.1023C158.251 34.3523 158.427 33.7273 158.779 33.2273C159.131 32.7273 159.589 32.3523 160.151 32.1023C160.714 31.8523 161.308 31.7273 161.933 31.7273C162.427 31.7273 162.83 31.767 163.143 31.8466C163.455 31.9261 163.688 32 163.842 32.0682L163.262 33.8068C163.16 33.7727 163.018 33.7301 162.836 33.679C162.66 33.6278 162.427 33.6023 162.137 33.6023C161.472 33.6023 160.992 33.7699 160.697 34.1051C160.407 34.4403 160.262 34.9318 160.262 35.5795V50H158.251ZM174.058 54.9091C173.717 54.9091 173.413 54.8807 173.146 54.8239C172.879 54.7727 172.695 54.7216 172.592 54.6705L173.104 52.8977C173.592 53.0227 174.024 53.0682 174.399 53.0341C174.774 53 175.107 52.8324 175.396 52.5312C175.692 52.2358 175.962 51.7557 176.206 51.0909L176.581 50.0682L171.74 36.9091H173.922L177.536 47.3409H177.672L181.286 36.9091H183.467L177.911 51.9091C177.661 52.5852 177.351 53.1449 176.982 53.5881C176.612 54.0369 176.183 54.3693 175.695 54.5852C175.212 54.8011 174.666 54.9091 174.058 54.9091Z" fill="#3E959B"/>
<path d="M66.1136 50H65.1136V51H66.1136V50ZM66.1136 32.5455V31.5455H65.1136V32.5455H66.1136ZM75.3693 33.2443L74.8993 34.127L74.9038 34.1294L75.3693 33.2443ZM77.3125 35.1449L76.4257 35.607L76.4257 35.607L77.3125 35.1449ZM77.3125 40.6335L76.4284 40.1662L76.4284 40.1662L77.3125 40.6335ZM75.3778 42.5085L75.8366 43.3971L75.8412 43.3947L75.3778 42.5085ZM67.2727 43.1818H66.2727V44.1818H67.2727V43.1818ZM67.2727 41.2727V40.2727H66.2727V41.2727H67.2727ZM74.2273 40.8636L73.798 39.9604L73.7945 39.9621L74.2273 40.8636ZM75.4716 39.7045L74.5832 39.2454L74.5812 39.2493L75.4716 39.7045ZM74.2188 34.8551L73.768 35.7478L73.7751 35.7513L74.2188 34.8551ZM68.2273 34.4205V33.4205H67.2273V34.4205H68.2273ZM68.2273 50V51H69.2273V50H68.2273ZM74.3295 42.1591L75.2066 41.6786L74.9219 41.1591H74.3295V42.1591ZM78.625 50V51H80.3131L79.502 49.5195L78.625 50ZM76.1705 50L75.2902 50.4746L75.5735 51H76.1705V50ZM71.9432 42.1591V41.1591H70.268L71.063 42.6336L71.9432 42.1591ZM67.1136 50V32.5455H65.1136V50H67.1136ZM66.1136 33.5455H72.0114V31.5455H66.1136V33.5455ZM72.0114 33.5455C73.2696 33.5455 74.2131 33.7616 74.8993 34.127L75.8393 32.3616C74.7756 31.7952 73.4804 31.5455 72.0114 31.5455V33.5455ZM74.9038 34.1294C75.615 34.5034 76.1076 34.9965 76.4257 35.607L78.1993 34.6827C77.6765 33.6796 76.8736 32.9057 75.8348 32.3593L74.9038 34.1294ZM76.4257 35.607C76.7626 36.2535 76.9432 37.009 76.9432 37.8977H78.9432C78.9432 36.7296 78.7033 35.6499 78.1993 34.6827L76.4257 35.607ZM76.9432 37.8977C76.9432 38.7867 76.7625 39.5342 76.4284 40.1662L78.1966 41.1008C78.7034 40.1419 78.9432 39.0655 78.9432 37.8977H76.9432ZM76.4284 40.1662C76.1111 40.7665 75.6214 41.2527 74.9145 41.6224L75.8412 43.3947C76.873 42.8552 77.673 42.0915 78.1966 41.1008L76.4284 40.1662ZM74.9191 41.62C74.2352 41.9731 73.2958 42.1818 72.0455 42.1818V44.1818C73.4996 44.1818 74.7818 43.9417 75.8366 43.3971L74.9191 41.62ZM72.0455 42.1818H67.2727V44.1818H72.0455V42.1818ZM68.2727 43.1818V41.2727H66.2727V43.1818H68.2727ZM67.2727 42.2727H71.9773V40.2727H67.2727V42.2727ZM71.9773 42.2727C72.9931 42.2727 73.9079 42.1262 74.66 41.7652L73.7945 39.9621C73.4103 40.1466 72.8251 40.2727 71.9773 40.2727V42.2727ZM74.6565 41.7668C75.4018 41.4127 75.993 40.8812 76.3619 40.1598L74.5812 39.2493C74.4388 39.5279 74.2005 39.7692 73.798 39.9604L74.6565 41.7668ZM76.3599 40.1637C76.7095 39.4873 76.8636 38.7205 76.8636 37.8977H74.8636C74.8636 38.4727 74.7564 38.9104 74.5832 39.2454L76.3599 40.1637ZM76.8636 37.8977C76.8636 37.0737 76.7091 36.3043 76.366 35.6181L74.5772 36.5126C74.7568 36.8718 74.8636 37.324 74.8636 37.8977H76.8636ZM76.366 35.6181C75.9979 34.8818 75.4117 34.3298 74.6624 33.9589L73.7751 35.7513C74.1736 35.9486 74.4226 36.2034 74.5772 36.5126L76.366 35.6181ZM74.6695 33.9625C73.906 33.5769 72.9754 33.4205 71.9432 33.4205V35.4205C72.7974 35.4205 73.3838 35.5538 73.768 35.7478L74.6695 33.9625ZM71.9432 33.4205H68.2273V35.4205H71.9432V33.4205ZM67.2273 34.4205V50H69.2273V34.4205H67.2273ZM68.2273 49H66.1136V51H68.2273V49ZM73.4525 42.6395L77.748 50.4805L79.502 49.5195L75.2066 41.6786L73.4525 42.6395ZM78.625 49H76.1705V51H78.625V49ZM77.0507 49.5254L72.8234 41.6845L71.063 42.6336L75.2902 50.4746L77.0507 49.5254ZM71.9432 43.1591H74.3295V41.1591H71.9432V43.1591ZM90.1669 49.4375L89.6407 50.2879L89.647 50.2917L90.1669 49.4375ZM88.0618 47.0852L87.1614 47.5203L87.1643 47.5263L88.0618 47.0852ZM88.0618 40.0114L87.1605 39.5781L87.1595 39.5803L88.0618 40.0114ZM90.1243 37.608L90.6702 38.4458L90.6715 38.4449L90.1243 37.608ZM95.2464 37.0795L95.5699 36.1333L95.5699 36.1333L95.2464 37.0795ZM97.0618 38.1875L96.3778 38.917L96.3819 38.9208L97.0618 38.1875ZM98.3658 40.1989L99.2981 39.8373L99.2981 39.8373L98.3658 40.1989ZM98.8516 44.1364V45.1364H99.8516V44.1364H98.8516ZM88.7607 44.1364H87.7607V45.1364H88.7607V44.1364ZM88.7607 42.3977V41.3977H87.7607V42.3977H88.7607ZM96.8061 42.3977V43.3977H97.8061V42.3977H96.8061ZM96.3629 40.4205L95.4685 40.8677L95.472 40.8746L96.3629 40.4205ZM95.1186 39.0483L94.587 39.8953L94.591 39.8978L95.1186 39.0483ZM91.147 39.142L91.7073 39.9703L91.7091 39.9691L91.147 39.142ZM89.8089 40.6761L88.9129 40.2322L88.9129 40.2322L89.8089 40.6761ZM89.8516 46.3778L88.9556 46.8221L88.9601 46.831L89.8516 46.3778ZM91.2919 47.9375L90.788 48.8013L90.794 48.8048L91.2919 47.9375ZM94.8629 48.2443L95.1905 49.1892L95.1977 49.1866L94.8629 48.2443ZM95.9794 47.5625L96.6733 48.2826L96.68 48.2761L95.9794 47.5625ZM96.7038 46.4205L96.9741 45.4577L96.0899 45.2095L95.7675 46.0693L96.7038 46.4205ZM98.647 46.9659L99.6021 47.2623L99.9067 46.2808L98.9173 46.0031L98.647 46.9659ZM97.6158 48.7045L98.3311 49.4034L98.335 49.3993L97.6158 48.7045ZM95.826 49.8636L96.1845 50.7972L96.191 50.7947L95.826 49.8636ZM93.4311 49.2727C92.3202 49.2727 91.419 49.0289 90.6869 48.5833L89.647 50.2917C90.7444 50.9597 92.0193 51.2727 93.4311 51.2727V49.2727ZM90.6931 48.5871C89.9516 48.1283 89.3749 47.4897 88.9592 46.6441L87.1643 47.5263C87.7373 48.6921 88.564 49.6217 89.6407 50.2879L90.6931 48.5871ZM88.9622 46.6502C88.5506 45.7983 88.3288 44.7759 88.3288 43.5568H86.3288C86.3288 45.0195 86.5957 46.3494 87.1614 47.5203L88.9622 46.6502ZM88.3288 43.5568C88.3288 42.338 88.5505 41.3081 88.9641 40.4425L87.1595 39.5803C86.5958 40.7601 86.3288 42.0938 86.3288 43.5568H88.3288ZM88.9631 40.4446C89.3852 39.5664 89.9558 38.9113 90.6702 38.4458L89.5784 36.7701C88.5314 37.4523 87.727 38.3995 87.1605 39.5781L88.9631 40.4446ZM90.6715 38.4449C91.3767 37.9838 92.2158 37.7386 93.2266 37.7386V35.7386C91.8737 35.7386 90.6446 36.073 89.577 36.771L90.6715 38.4449ZM93.2266 37.7386C93.795 37.7386 94.3591 37.833 94.923 38.0258L95.5699 36.1333C94.8042 35.8715 94.0218 35.7386 93.2266 35.7386V37.7386ZM94.923 38.0258C95.4451 38.2043 95.9291 38.4963 96.3778 38.917L97.7457 37.458C97.1036 36.856 96.3774 36.4094 95.5699 36.1333L94.923 38.0258ZM96.3819 38.9208C96.7956 39.3044 97.1533 39.8381 97.4334 40.5604L99.2981 39.8373C98.9305 38.8892 98.4189 38.082 97.7417 37.4542L96.3819 38.9208ZM97.4334 40.5604C97.6995 41.2467 97.8516 42.1441 97.8516 43.2841H99.8516C99.8516 41.9809 99.6797 40.8214 99.2981 39.8373L97.4334 40.5604ZM97.8516 43.2841V44.1364H99.8516V43.2841H97.8516ZM98.8516 43.1364H88.7607V45.1364H98.8516V43.1364ZM89.7607 44.1364V42.3977H87.7607V44.1364H89.7607ZM88.7607 43.3977H96.8061V41.3977H88.7607V43.3977ZM97.8061 42.3977C97.8061 41.5228 97.6302 40.7045 97.2538 39.9663L95.472 40.8746C95.6866 41.2955 95.8061 41.7954 95.8061 42.3977H97.8061ZM97.2574 39.9732C96.8866 39.2317 96.3463 38.6336 95.6462 38.1988L94.591 39.8978C94.9704 40.1334 95.2597 40.4501 95.4685 40.8677L97.2574 39.9732ZM95.6502 38.2013C94.9336 37.7515 94.1125 37.5455 93.2266 37.5455V39.5455C93.7952 39.5455 94.2354 39.6746 94.587 39.8953L95.6502 38.2013ZM93.2266 37.5455C92.2524 37.5455 91.3573 37.7901 90.5849 38.315L91.7091 39.9691C92.1072 39.6986 92.5985 39.5455 93.2266 39.5455V37.5455ZM90.5867 38.3138C89.863 38.8033 89.3017 39.4475 88.9129 40.2322L90.705 41.1201C90.9412 40.6434 91.2719 40.2649 91.7073 39.9703L90.5867 38.3138ZM88.9129 40.2322C88.5303 41.0044 88.3402 41.8329 88.3402 42.7045H90.3402C90.3402 42.133 90.4626 41.6092 90.705 41.1201L88.9129 40.2322ZM88.3402 42.7045V43.8636H90.3402V42.7045H88.3402ZM88.3402 43.8636C88.3402 44.9634 88.5295 45.9626 88.9557 46.8221L90.7475 45.9336C90.4919 45.4181 90.3402 44.7411 90.3402 43.8636H88.3402ZM88.9601 46.831C89.3868 47.6704 89.9956 48.3391 90.788 48.8013L91.7958 47.0737C91.3609 46.82 91.0095 46.449 90.743 45.9247L88.9601 46.831ZM90.794 48.8048C91.5804 49.2562 92.4702 49.4659 93.4311 49.4659V47.4659C92.767 47.4659 92.2306 47.3233 91.7898 47.0702L90.794 48.8048ZM93.4311 49.4659C94.0523 49.4659 94.6427 49.3791 95.1905 49.1892L94.5354 47.2995C94.2309 47.405 93.8667 47.4659 93.4311 47.4659V49.4659ZM95.1977 49.1866C95.756 48.9883 96.2526 48.688 96.6733 48.2826L95.2855 46.8424C95.0812 47.0393 94.8335 47.1936 94.5282 47.302L95.1977 49.1866ZM96.68 48.2761C97.1074 47.8564 97.4241 47.3477 97.6402 46.7716L95.7675 46.0693C95.6427 46.4023 95.4764 46.6549 95.2788 46.8489L96.68 48.2761ZM96.4336 47.3832L98.3768 47.9287L98.9173 46.0031L96.9741 45.4577L96.4336 47.3832ZM97.692 46.6695C97.5341 47.1781 97.2716 47.6215 96.8965 48.0098L98.335 49.3993C98.9258 48.7876 99.3508 48.0719 99.6021 47.2623L97.692 46.6695ZM96.9005 48.0057C96.5264 48.3886 96.0532 48.7005 95.461 48.9326L96.191 50.7947C97.0193 50.47 97.7392 50.0091 98.331 49.4034L96.9005 48.0057ZM95.4675 48.9301C94.8889 49.1523 94.2148 49.2727 93.4311 49.2727V51.2727C94.4201 51.2727 95.3426 51.1204 96.1845 50.7972L95.4675 48.9301ZM110.673 50V51H111.673V50H110.673ZM108.661 50H107.661V51H108.661V50ZM108.661 36.9091V35.9091H107.661V36.9091H108.661ZM110.604 36.9091H111.604V35.9091H110.604V36.9091ZM110.604 38.9545H109.604V39.9545H110.604V38.9545ZM110.775 38.9545V39.9545H111.415L111.683 39.3736L110.775 38.9545ZM112.173 37.3523L112.715 38.1925L112.72 38.189L112.173 37.3523ZM116.92 37.2841L116.44 38.1614L116.446 38.1646L116.92 37.2841ZM118.471 38.9205L117.578 39.3704L117.579 39.3732L118.471 38.9205ZM119.025 50V51H120.025V50H119.025ZM117.013 50H116.013V51H117.013V50ZM116.212 39.4148L115.477 40.0925L115.48 40.0961L116.212 39.4148ZM112.292 38.9631L111.81 38.087L111.805 38.0894L112.292 38.9631ZM111.107 40.1818L110.228 39.7049L110.228 39.7049L111.107 40.1818ZM109.673 42.125V50H111.673V42.125H109.673ZM110.673 49H108.661V51H110.673V49ZM109.661 50V36.9091H107.661V50H109.661ZM108.661 37.9091H110.604V35.9091H108.661V37.9091ZM109.604 36.9091V38.9545H111.604V36.9091H109.604ZM110.604 39.9545H110.775V37.9545H110.604V39.9545ZM111.683 39.3736C111.909 38.8839 112.247 38.4948 112.715 38.1925L111.63 36.5121C110.849 37.0166 110.255 37.6956 109.867 38.5355L111.683 39.3736ZM112.72 38.189C113.138 37.9158 113.737 37.7386 114.593 37.7386V35.7386C113.472 35.7386 112.458 35.9705 111.625 36.5156L112.72 38.189ZM114.593 37.7386C115.34 37.7386 115.945 37.891 116.44 38.1614L117.4 36.4068C116.565 35.95 115.619 35.7386 114.593 35.7386V37.7386ZM116.446 38.1646C116.914 38.4168 117.292 38.8038 117.578 39.3704L119.364 38.4705C118.911 37.5712 118.255 36.8673 117.394 36.4036L116.446 38.1646ZM117.579 39.3732C117.856 39.9185 118.025 40.671 118.025 41.6818H120.025C120.025 40.4654 119.824 39.3769 119.363 38.4677L117.579 39.3732ZM118.025 41.6818V50H120.025V41.6818H118.025ZM119.025 49H117.013V51H119.025V49ZM118.013 50V41.8182H116.013V50H118.013ZM118.013 41.8182C118.013 40.618 117.699 39.5442 116.944 38.7335L115.48 40.0961C115.794 40.433 116.013 40.9615 116.013 41.8182H118.013ZM116.948 38.7371C116.19 37.9146 115.169 37.5455 114.013 37.5455V39.5455C114.721 39.5455 115.167 39.7559 115.477 40.0925L116.948 38.7371ZM114.013 37.5455C113.222 37.5455 112.479 37.7185 111.81 38.0871L112.774 39.8391C113.116 39.6508 113.521 39.5455 114.013 39.5455V37.5455ZM111.805 38.0894C111.129 38.4659 110.603 39.0148 110.228 39.7049L111.986 40.6587C112.191 40.2807 112.455 40.017 112.778 39.8368L111.805 38.0894ZM110.228 39.7049C109.841 40.4179 109.673 41.2385 109.673 42.125H111.673C111.673 41.4888 111.794 41.0139 111.986 40.6587L110.228 39.7049ZM135.143 36.9091H136.143V35.9091H135.143V36.9091ZM135.143 38.6136V39.6136H136.143V38.6136H135.143ZM128.359 38.6136H127.359V39.6136H128.359V38.6136ZM128.359 36.9091V35.9091H127.359V36.9091H128.359ZM130.337 33.7727V32.7727H129.337V33.7727H130.337ZM132.348 33.7727H133.348V32.7727H132.348V33.7727ZM132.595 47.5284L131.73 48.0301L131.736 48.0404L131.742 48.0506L132.595 47.5284ZM133.243 48.0909L132.896 49.0289L132.908 49.0334L132.921 49.0376L133.243 48.0909ZM134.632 48.1932L134.79 49.1806L134.809 49.1776L134.828 49.1738L134.632 48.1932ZM134.973 48.125L135.948 47.9042L135.733 46.9532L134.777 47.1444L134.973 48.125ZM135.382 49.9318L135.733 50.8681L136.55 50.5618L136.357 49.711L135.382 49.9318ZM134.811 50.0852L134.606 49.1064L134.595 49.1087L134.585 49.1112L134.811 50.0852ZM132.212 49.804L131.799 50.715L131.803 50.7166L132.212 49.804ZM130.865 48.6875L130.048 49.2635L130.052 49.2696L130.865 48.6875ZM134.143 36.9091V38.6136H136.143V36.9091H134.143ZM135.143 37.6136H128.359V39.6136H135.143V37.6136ZM129.359 38.6136V36.9091H127.359V38.6136H129.359ZM128.359 37.9091H135.143V35.9091H128.359V37.9091ZM130.337 34.7727H132.348V32.7727H130.337V34.7727ZM131.348 33.7727V46.25H133.348V33.7727H131.348ZM131.348 46.25C131.348 46.8821 131.434 47.5194 131.73 48.0301L133.46 47.0267C133.427 46.9693 133.348 46.7543 133.348 46.25H131.348ZM131.742 48.0506C132.009 48.4862 132.389 48.8416 132.896 49.0289L133.59 47.1529C133.574 47.147 133.522 47.1274 133.448 47.0063L131.742 48.0506ZM132.921 49.0376C133.296 49.1654 133.687 49.2273 134.087 49.2273V47.2273C133.896 47.2273 133.724 47.1982 133.565 47.1443L132.921 49.0376ZM134.087 49.2273C134.336 49.2273 134.576 49.2149 134.79 49.1806L134.474 47.2057C134.404 47.2169 134.28 47.2273 134.087 47.2273V49.2273ZM134.828 49.1738C134.97 49.1454 135.084 49.1226 135.169 49.1056L134.777 47.1444C134.692 47.1615 134.578 47.1842 134.436 47.2126L134.828 49.1738ZM133.998 48.3458L134.407 50.1526L136.357 49.711L135.948 47.9042L133.998 48.3458ZM135.031 48.9955C134.964 49.0206 134.831 49.0595 134.606 49.1064L135.016 51.064C135.28 51.0087 135.527 50.9453 135.733 50.8681L135.031 48.9955ZM134.585 49.1112C134.441 49.1445 134.214 49.1705 133.882 49.1705V51.1705C134.3 51.1705 134.692 51.1396 135.038 51.0592L134.585 49.1112ZM133.882 49.1705C133.462 49.1705 133.044 49.0811 132.62 48.8913L131.803 50.7166C132.47 51.0155 133.166 51.1705 133.882 51.1705V49.1705ZM132.624 48.893C132.251 48.7239 131.938 48.4681 131.678 48.1054L130.052 49.2696C130.508 49.9069 131.093 50.3954 131.799 50.715L132.624 48.893ZM131.683 48.1115C131.475 47.8175 131.337 47.4015 131.337 46.7955H129.337C129.337 47.7121 129.55 48.5575 130.048 49.2635L131.683 48.1115ZM131.337 46.7955V33.7727H129.337V46.7955H131.337ZM144.919 50H143.919V51H144.919V50ZM144.919 36.9091V35.9091H143.919V36.9091H144.919ZM146.93 36.9091H147.93V35.9091H146.93V36.9091ZM146.93 50V51H147.93V50H146.93ZM144.928 34.3267L144.235 35.0484L144.243 35.0553L144.928 34.3267ZM144.928 32.4006L144.243 31.6719L144.235 31.6789L144.928 32.4006ZM146.947 32.4006L146.255 33.1223L146.263 33.1292L146.947 32.4006ZM146.947 34.3267L146.262 33.598L146.255 33.605L146.947 34.3267ZM145.919 50V36.9091H143.919V50H145.919ZM144.919 37.9091H146.93V35.9091H144.919V37.9091ZM145.93 36.9091V50H147.93V36.9091H145.93ZM146.93 49H144.919V51H146.93V49ZM145.942 33.7273C145.803 33.7273 145.71 33.6897 145.612 33.5981L144.243 35.0553C144.713 35.4978 145.297 35.7273 145.942 35.7273V33.7273ZM145.62 33.605C145.532 33.5205 145.51 33.4575 145.51 33.3636H143.51C143.51 34.0198 143.767 34.5989 144.235 35.0484L145.62 33.605ZM145.51 33.3636C145.51 33.2698 145.532 33.2068 145.62 33.1222L144.235 31.6789C143.767 32.1284 143.51 32.7075 143.51 33.3636H145.51ZM145.612 33.1292C145.71 33.0375 145.803 33 145.942 33V31C145.297 31 144.713 31.2295 144.243 31.6719L145.612 33.1292ZM145.942 33C146.08 33 146.166 33.037 146.255 33.1222L147.64 31.6789C147.172 31.23 146.587 31 145.942 31V33ZM146.263 33.1292C146.355 33.2157 146.374 33.2767 146.374 33.3636H148.374C148.374 32.7006 148.109 32.1195 147.632 31.6719L146.263 33.1292ZM146.374 33.3636C146.374 33.4506 146.355 33.5116 146.263 33.5981L147.632 35.0553C148.109 34.6078 148.374 34.0267 148.374 33.3636H146.374ZM146.255 33.605C146.166 33.6903 146.08 33.7273 145.942 33.7273V35.7273C146.587 35.7273 147.172 35.4972 147.64 35.0484L146.255 33.605ZM163.194 36.9091H164.194V35.9091H163.194V36.9091ZM163.194 38.6136V39.6136H164.194V38.6136H163.194ZM156.137 38.6136H155.137V39.6136H156.137V38.6136ZM156.137 36.9091V35.9091H155.137V36.9091H156.137ZM158.251 50H157.251V51H158.251V50ZM158.779 33.2273L157.962 32.6513L157.962 32.6513L158.779 33.2273ZM160.151 32.1023L159.745 31.1885L159.745 31.1885L160.151 32.1023ZM163.143 31.8466L162.896 32.8157L162.896 32.8157L163.143 31.8466ZM163.842 32.0682L164.79 32.3844L165.077 31.5231L164.248 31.1544L163.842 32.0682ZM163.262 33.8068L162.946 34.7555L163.895 35.0717L164.211 34.123L163.262 33.8068ZM162.836 33.679L162.557 34.6394L162.565 34.6416L162.836 33.679ZM160.697 34.1051L159.946 33.4439L159.94 33.4512L160.697 34.1051ZM160.262 50V51H161.262V50H160.262ZM162.194 36.9091V38.6136H164.194V36.9091H162.194ZM163.194 37.6136H156.137V39.6136H163.194V37.6136ZM157.137 38.6136V36.9091H155.137V38.6136H157.137ZM156.137 37.9091H163.194V35.9091H156.137V37.9091ZM159.251 50V35.1023H157.251V50H159.251ZM159.251 35.1023C159.251 34.5112 159.388 34.0997 159.597 33.8032L157.962 32.6513C157.466 33.3548 157.251 34.1934 157.251 35.1023H159.251ZM159.597 33.8032C159.844 33.4519 160.159 33.1932 160.557 33.0161L159.745 31.1885C159.019 31.5114 158.419 32.0026 157.962 32.6513L159.597 33.8032ZM160.557 33.0161C160.99 32.8238 161.445 32.7273 161.933 32.7273V30.7273C161.17 30.7273 160.438 30.8807 159.745 31.1885L160.557 33.0161ZM161.933 32.7273C162.383 32.7273 162.695 32.7645 162.896 32.8157L163.389 30.8775C162.966 30.7696 162.471 30.7273 161.933 30.7273V32.7273ZM162.896 32.8157C163.194 32.8915 163.361 32.9489 163.435 32.982L164.248 31.1544C164.015 31.0511 163.716 30.9607 163.389 30.8775L162.896 32.8157ZM162.893 31.752L162.313 33.4906L164.211 34.123L164.79 32.3844L162.893 31.752ZM163.578 32.8581C163.454 32.8167 163.294 32.7691 163.107 32.7163L162.565 34.6416C162.741 34.6911 162.866 34.7288 162.946 34.7555L163.578 32.8581ZM163.115 32.7186C162.811 32.6305 162.473 32.6023 162.137 32.6023V34.6023C162.38 34.6023 162.508 34.6251 162.557 34.6393L163.115 32.7186ZM162.137 32.6023C161.327 32.6023 160.509 32.806 159.947 33.4439L161.447 34.7663C161.476 34.7338 161.618 34.6023 162.137 34.6023V32.6023ZM159.94 33.4512C159.435 34.036 159.262 34.8001 159.262 35.5795H161.262C161.262 35.0636 161.379 34.8447 161.453 34.7591L159.94 33.4512ZM159.262 35.5795V50H161.262V35.5795H159.262ZM160.262 49H158.251V51H160.262V49ZM173.146 54.8239L173.354 53.8458L173.344 53.8436L173.334 53.8417L173.146 54.8239ZM172.592 54.6705L171.632 54.3933L171.401 55.1928L172.145 55.5649L172.592 54.6705ZM173.104 52.8977L173.352 51.9289L172.412 51.6885L172.143 52.6206L173.104 52.8977ZM174.399 53.0341L174.309 52.0382L174.309 52.0382L174.399 53.0341ZM175.396 52.5312L174.689 51.8241L174.682 51.8309L174.676 51.8379L175.396 52.5312ZM176.206 51.0909L177.145 51.4359L177.145 51.4352L176.206 51.0909ZM176.581 50.0682L177.52 50.4124L177.646 50.0676L177.519 49.7229L176.581 50.0682ZM171.74 36.9091V35.9091H170.307L170.802 37.2543L171.74 36.9091ZM173.922 36.9091L174.867 36.5818L174.634 35.9091H173.922V36.9091ZM177.536 47.3409L176.591 47.6682L176.824 48.3409H177.536V47.3409ZM177.672 47.3409V48.3409H178.384L178.617 47.6682L177.672 47.3409ZM181.286 36.9091V35.9091H180.574L180.341 36.5818L181.286 36.9091ZM183.467 36.9091L184.405 37.2565L184.904 35.9091H183.467V36.9091ZM177.911 51.9091L176.973 51.5617L176.973 51.5623L177.911 51.9091ZM176.982 53.5881L176.213 52.9479L176.209 52.9527L176.982 53.5881ZM175.695 54.5852L175.29 53.6705L175.286 53.6723L175.695 54.5852ZM174.058 53.9091C173.771 53.9091 173.539 53.885 173.354 53.8458L172.938 55.802C173.288 55.8764 173.664 55.9091 174.058 55.9091V53.9091ZM173.334 53.8417C173.217 53.8193 173.132 53.7995 173.074 53.7834C173.046 53.7755 173.029 53.7698 173.02 53.7669C173.011 53.7635 173.019 53.7659 173.04 53.776L172.145 55.5649C172.383 55.6839 172.691 55.7548 172.958 55.806L173.334 53.8417ZM173.553 54.9476L174.065 53.1749L172.143 52.6206L171.632 54.3933L173.553 54.9476ZM172.856 53.8665C173.42 54.0108 173.97 54.0772 174.49 54.03L174.309 52.0382C174.078 52.0591 173.765 52.0347 173.352 51.9289L172.856 53.8665ZM174.49 54.03C175.131 53.9717 175.68 53.6787 176.117 53.2246L174.676 51.8379C174.533 51.9861 174.417 52.0283 174.309 52.0382L174.49 54.03ZM176.103 53.2384C176.549 52.7927 176.88 52.1548 177.145 51.4359L175.267 50.7459C175.043 51.3566 174.834 51.6788 174.689 51.8241L176.103 53.2384ZM177.145 51.4352L177.52 50.4124L175.642 49.7239L175.267 50.7467L177.145 51.4352ZM177.519 49.7229L172.679 36.5638L170.802 37.2543L175.642 50.4134L177.519 49.7229ZM171.74 37.9091H173.922V35.9091H171.74V37.9091ZM172.977 37.2364L176.591 47.6682L178.48 47.0136L174.867 36.5818L172.977 37.2364ZM177.536 48.3409H177.672V46.3409H177.536V48.3409ZM178.617 47.6682L182.23 37.2364L180.341 36.5818L176.727 47.0136L178.617 47.6682ZM181.286 37.9091H183.467V35.9091H181.286V37.9091ZM182.53 36.5617L176.973 51.5617L178.848 52.2565L184.405 37.2565L182.53 36.5617ZM176.973 51.5623C176.753 52.1572 176.494 52.6109 176.213 52.9479L177.75 54.2283C178.208 53.6789 178.568 53.0132 178.848 52.2559L176.973 51.5623ZM176.209 52.9527C175.93 53.2918 175.624 53.5232 175.29 53.6705L176.099 55.4999C176.742 55.2155 177.294 54.782 177.754 54.2234L176.209 52.9527ZM175.286 53.6723C174.95 53.8229 174.546 53.9091 174.058 53.9091V55.9091C174.786 55.9091 175.474 55.7794 176.103 55.4982L175.286 53.6723Z" fill="#3E959B" mask="url(#path-4-outside-2_1_2)"/>
</svg>
